<svg width="90" height="90" viewBox="0 0 90 90" fill="none" xmlns="http://www.w3.org/2000/svg">
<circle cx="45" cy="45" r="44.5" fill="#4C8FCC" stroke="#4C8FCC"/>
<path d="M21.8042 61.7033C21.0617 61.7033 20.3411 61.3081 19.9306 60.6041C16.0347 53.8452 14.8991 45.9099 16.7379 38.2607C18.5766 30.6116 23.1713 24.1616 29.6746 20.1054C36.1735 16.0401 43.7992 14.8545 51.1716 16.785C58.5266 18.6973 64.7241 23.4757 68.62 30.23L70.8168 34.041C71.9437 35.9987 72.9875 38.0654 73.9178 40.1821C74.4157 41.3222 73.9353 42.6713 72.8347 43.1936C71.7602 43.7069 70.4456 43.2118 69.9433 42.0671C69.0829 40.1004 68.1177 38.1881 67.0739 36.3803L64.877 32.5693C61.5795 26.8506 56.3341 22.8126 50.1103 21.191C43.8647 19.5603 37.4138 20.5596 31.9238 23.9981C26.4207 27.432 22.5336 32.8873 20.9744 39.36C19.4196 45.8372 20.376 52.5461 23.6779 58.2603C24.2981 59.3368 23.9618 60.7312 22.9311 61.3808C22.5773 61.5943 22.1886 61.7033 21.8042 61.7033Z" fill="white"/>
<path d="M33.3569 72.6834C32.1515 72.6834 31.1732 71.6659 31.1732 70.4123V65.5884C31.1732 63.5308 30.6359 61.514 29.6183 59.7516L27.4214 55.9316C24.7223 51.2576 23.9405 45.766 25.2115 40.4697C26.4868 35.1689 29.6707 30.7085 34.1649 27.9013C38.6591 25.0806 43.9439 24.263 49.0408 25.5984C54.129 26.9202 58.4223 30.227 61.1258 34.9055L63.3227 38.7119C68.0047 46.8289 70.4811 56.1223 70.4811 65.5838V68.1366C70.4811 69.3903 69.5028 70.4077 68.2973 70.4077C67.0919 70.4077 66.1135 69.3903 66.1135 68.1366V65.5838C66.1135 56.9445 63.8511 48.4596 59.5797 41.0512L57.3828 37.2448C55.2777 33.6064 51.9452 31.031 47.9838 30.0044C44.0225 28.9688 39.917 29.6092 36.4186 31.7941C32.9158 33.9789 30.4394 37.4537 29.448 41.5735C28.4565 45.6888 29.068 49.9585 31.1644 53.6014L33.3613 57.4169C34.7851 59.8833 35.5407 62.7131 35.5407 65.5929V70.4168C35.5407 71.6659 34.5624 72.6834 33.3569 72.6834Z" fill="white"/>
<path d="M59.5569 77.2209C58.3515 77.2209 57.3731 76.2034 57.3731 74.9498V65.5836C57.3731 58.5886 55.5431 51.7207 52.084 45.7204L49.8872 41.9185C48.9875 40.356 47.5549 39.2522 45.8516 38.8116C44.157 38.3756 42.4012 38.6481 40.9075 39.5793C39.4007 40.5195 38.3437 42.0094 37.9157 43.7718C37.4921 45.5342 37.7541 47.3692 38.6582 48.9227L40.8507 52.7336C43.0913 56.6127 44.2749 61.0596 44.2749 65.5836V72.6786C44.2749 73.9323 43.2965 74.9498 42.0911 74.9498C40.8857 74.9498 39.9073 73.9323 39.9073 72.6786V65.5836C39.9073 61.8863 38.9377 58.2479 37.1034 55.0683L34.9109 51.2619C33.4128 48.6683 32.9717 45.6114 33.6792 42.6725C34.3868 39.7337 36.1556 37.2491 38.6582 35.6866C41.1521 34.1286 44.0827 33.6789 46.9085 34.4057C49.743 35.1415 52.1277 36.9811 53.6302 39.5884L55.827 43.3857C59.6967 50.0946 61.7407 57.771 61.7407 65.5882V74.9543C61.7407 76.2034 60.7624 77.2209 59.5569 77.2209Z" fill="white"/>
<path d="M50.8239 79.4885C49.6185 79.4885 48.6401 78.471 48.6401 77.2173V65.5846C48.6401 60.2293 47.2425 54.9785 44.5914 50.3954L42.3989 46.5935C41.7787 45.517 42.115 44.1225 43.1501 43.4775C44.1896 42.828 45.5261 43.1823 46.1463 44.2542L48.3388 48.0561C51.3917 53.3433 53.0077 59.4072 53.0077 65.5801V77.2128C53.0077 78.471 52.0293 79.4885 50.8239 79.4885Z" fill="white"/>
</svg>
