<svg width="15" height="15" viewBox="0 0 15 15" fill="none" xmlns="http://www.w3.org/2000/svg">
<path fill-rule="evenodd" clip-rule="evenodd" d="M7.5 14C11.0899 14 14 11.0899 14 7.5C14 3.91015 11.0899 1 7.5 1C3.91015 1 1 3.91015 1 7.5C1 11.0899 3.91015 14 7.5 14Z" stroke="#DEDEDE"/>
<path d="M6.81934 9.12988C6.81934 8.67415 6.87467 8.3112 6.98535 8.04102C7.09603 7.77083 7.29785 7.50553 7.59082 7.24512C7.88704 6.98145 8.08398 6.76823 8.18164 6.60547C8.2793 6.43945 8.32812 6.2653 8.32812 6.08301C8.32812 5.53288 8.07422 5.25781 7.56641 5.25781C7.32552 5.25781 7.13184 5.33268 6.98535 5.48242C6.84212 5.62891 6.76725 5.83236 6.76074 6.09277H5.34473C5.35124 5.47103 5.55143 4.98438 5.94531 4.63281C6.34245 4.28125 6.88281 4.10547 7.56641 4.10547C8.25651 4.10547 8.79199 4.27311 9.17285 4.6084C9.55371 4.94043 9.74414 5.41081 9.74414 6.01953C9.74414 6.29622 9.68229 6.55827 9.55859 6.80566C9.4349 7.0498 9.21842 7.32161 8.90918 7.62109L8.51367 7.99707C8.26628 8.2347 8.12467 8.51302 8.08887 8.83203L8.06934 9.12988H6.81934ZM6.67773 10.6289C6.67773 10.4108 6.75098 10.2318 6.89746 10.0918C7.0472 9.94857 7.23763 9.87695 7.46875 9.87695C7.69987 9.87695 7.88867 9.94857 8.03516 10.0918C8.1849 10.2318 8.25977 10.4108 8.25977 10.6289C8.25977 10.8438 8.18652 11.0212 8.04004 11.1611C7.89681 11.3011 7.70638 11.3711 7.46875 11.3711C7.23112 11.3711 7.03906 11.3011 6.89258 11.1611C6.74935 11.0212 6.67773 10.8438 6.67773 10.6289Z" fill="#A6A7A7"/>
</svg>
