<svg width="18" height="28" viewBox="0 0 18 28" fill="none" xmlns="http://www.w3.org/2000/svg">
<rect x="2" y="2" width="14" height="23" fill="white"/>
<path fill-rule="evenodd" clip-rule="evenodd" d="M1.92 24.9H15.331V2.753H1.92V24.9ZM14.787 0.012L2.464 0C1.109 0 0 1.109 0 2.464V24.645C0 26 1.109 27.109 2.464 27.109H14.787C16.142 27.109 17.251 26 17.251 24.645V2.464C17.251 1.109 16.142 0.012 14.787 0.012V0.012Z" fill="#989898"/>
<path fill-rule="evenodd" clip-rule="evenodd" d="M10.017 1.60039H7.23398C7.06498 1.60039 6.92798 1.46339 6.92798 1.29439V1.13139C6.92798 0.962391 7.06498 0.825391 7.23398 0.825391H10.017C10.186 0.825391 10.323 0.962391 10.323 1.13139V1.29439C10.323 1.46339 10.186 1.60039 10.017 1.60039" fill="#FEFEFE"/>
<path fill-rule="evenodd" clip-rule="evenodd" d="M12.3066 10.1183C12.3066 12.2153 10.6066 13.9143 8.51062 13.9143C6.41362 13.9143 4.71362 12.2153 4.71362 10.1183C4.71362 8.02127 6.41362 6.32227 8.51062 6.32227C10.6066 6.32227 12.3066 8.02127 12.3066 10.1183" fill="#6A99CF"/>
<path fill-rule="evenodd" clip-rule="evenodd" d="M12.3066 10.1183C12.3066 12.2153 10.6066 13.9143 8.51062 13.9143C6.41362 13.9143 4.71362 12.2153 4.71362 10.1183C4.71362 8.02127 6.41362 6.32227 8.51062 6.32227C10.6066 6.32227 12.3066 8.02127 12.3066 10.1183Z" stroke="#020303" stroke-width="0.544"/>
<path d="M8.51025 10.3323V8.03125" stroke="#020303" stroke-width="0.701" stroke-linecap="round" stroke-linejoin="round"/>
<path d="M10.811 10.332H8.51001" stroke="#020303" stroke-width="0.701" stroke-linecap="round" stroke-linejoin="round"/>
<path fill-rule="evenodd" clip-rule="evenodd" d="M5.52687 17.0746C5.52687 17.4976 5.18387 17.8406 4.76087 17.8406C4.33787 17.8406 3.99487 17.4976 3.99487 17.0746C3.99487 16.6516 4.33787 16.3086 4.76087 16.3086C5.18387 16.3086 5.52687 16.6516 5.52687 17.0746" fill="#020303"/>
<path fill-rule="evenodd" clip-rule="evenodd" d="M8.24709 17.0746C8.24709 17.4976 7.90409 17.8406 7.48109 17.8406C7.05809 17.8406 6.71509 17.4976 6.71509 17.0746C6.71509 16.6516 7.05809 16.3086 7.48109 16.3086C7.90409 16.3086 8.24709 16.6516 8.24709 17.0746" fill="#020303"/>
<path fill-rule="evenodd" clip-rule="evenodd" d="M10.917 17.0746C10.917 17.4976 10.574 17.8406 10.151 17.8406C9.72801 17.8406 9.38501 17.4976 9.38501 17.0746C9.38501 16.6516 9.72801 16.3086 10.151 16.3086C10.574 16.3086 10.917 16.6516 10.917 17.0746" fill="#020303"/>
<path fill-rule="evenodd" clip-rule="evenodd" d="M13.6372 17.0746C13.6372 17.4976 13.2942 17.8406 12.8712 17.8406C12.4482 17.8406 12.1052 17.4976 12.1052 17.0746C12.1052 16.6516 12.4482 16.3086 12.8712 16.3086C13.2942 16.3086 13.6372 16.6516 13.6372 17.0746" fill="#020303"/>
</svg>
