<svg width="87" height="100" viewBox="0 0 87 100" fill="none" xmlns="http://www.w3.org/2000/svg">
<path fill-rule="evenodd" clip-rule="evenodd" d="M59.1027 3.19778C58.6394 3.64339 58.2078 4.11831 57.809 4.62066C55.0436 8.60762 52.338 12.6372 49.5346 16.5959C48.8862 17.5094 48.971 17.9945 49.8371 18.5743C51.82 19.8987 53.7637 21.2816 55.7315 22.637C60.9967 26.2676 66.2619 29.8982 71.5258 33.5307C72.2389 34.0245 72.8592 34.3086 73.4833 33.4061C76.376 29.2288 79.2706 25.0529 82.1731 20.8823C82.8896 19.8588 82.645 19.1576 81.6824 18.497C74.5884 13.6177 67.502 8.72711 60.4219 3.82707C59.9983 3.58454 59.5554 3.37534 59.1027 3.19778ZM35.4003 97.1643C36.2036 96.5966 36.9414 95.9447 37.6009 95.2195C39.8038 92.1787 41.8932 89.057 44.0502 85.9832C44.6676 85.1034 44.6519 84.4682 43.7161 83.8227C33.391 76.718 23.078 69.5994 12.7762 62.464C11.8895 61.8513 11.2293 61.9414 10.6016 62.8579C8.37389 66.1054 6.10693 69.3265 3.88907 72.5804C2.89676 73.9949 3.28853 75.9758 4.76486 77.0077L4.78057 77.0182C7.32258 78.7223 9.87407 80.4166 12.389 82.1571C19.2398 86.8983 26.0611 91.6796 32.9316 96.3955C33.5451 96.8175 34.4143 96.87 35.4003 97.1643ZM46.1905 82.6155C46.5278 82.2219 46.8459 81.9166 47.0946 81.562C53.7762 71.9197 60.4551 62.2729 67.1301 52.6235C69.8939 48.6302 72.6606 44.6414 75.4284 40.6507C75.9244 39.9351 76.1637 39.3015 75.2666 38.6873C70.064 35.1204 64.871 31.5435 59.688 27.9515C54.6074 24.4445 49.5294 20.9337 44.4558 17.4205C43.0222 16.4226 42.7434 16.4269 41.7408 17.8782C38.3541 22.7806 34.9707 27.6824 31.5933 32.588C25.6186 41.2168 19.6373 49.8383 13.6483 58.4546C12.9932 59.3992 13.0798 60.0983 14.0275 60.7517C24.3206 67.8404 34.6066 74.9355 44.8922 82.0356C45.3064 82.2665 45.7407 82.4589 46.1905 82.6155ZM35.4941 99.3271C34.3664 98.9892 33.0714 98.8971 32.1353 98.2729C25.9467 94.1445 19.8393 89.8985 13.7056 85.692C10.5466 83.5202 7.4407 81.2777 4.2233 79.2059C1.16483 77.2324 0.386392 73.896 2.36679 71.0479C15.2672 52.531 28.121 33.9859 40.9363 15.4094C42.1971 13.5853 42.5093 13.5352 44.3057 14.7431C47.0939 16.6148 47.0782 16.6043 48.9918 13.8176C51.844 9.66257 54.7403 5.5395 57.5848 1.37916C58.2881 0.349572 59.0072 0.252529 59.9758 0.92543C68.1706 6.5988 76.3666 12.2704 84.5705 17.9388C85.7565 18.7627 85.7997 19.2336 84.8905 20.5537C81.9282 24.8562 78.9613 29.1528 75.9857 33.4409C74.4805 35.6007 74.4589 35.5862 76.543 37.0057C79.132 38.7714 79.1565 38.9133 77.3146 41.5759C64.7298 59.7529 52.1503 77.9306 39.5753 96.1141C38.6251 97.6062 37.1931 98.7346 35.4941 99.3271Z" fill="#989898"/>
<path d="M59.102 3.19771L59.2829 2.73653L58.9873 2.62063L58.7586 2.84071L59.102 3.19771ZM57.8083 4.62058L57.4204 4.31257L57.4104 4.3251L57.4013 4.33826L57.8083 4.62058ZM49.534 16.5958L49.9379 16.8825L49.9383 16.8821L49.534 16.5958ZM49.8364 18.5742L49.5609 18.9859L49.5613 18.9861L49.8364 18.5742ZM55.7309 22.6369L56.0121 22.2291L56.0119 22.229L55.7309 22.6369ZM71.5251 33.5306L71.8071 33.1233L71.8065 33.1229L71.5251 33.5306ZM73.4826 33.406L73.0753 33.1239L73.0751 33.1242L73.4826 33.406ZM82.1724 20.8822L81.7666 20.5982L81.7658 20.5993L82.1724 20.8822ZM81.6817 18.4969L81.401 18.905L81.4014 18.9053L81.6817 18.4969ZM60.4212 3.827L60.7031 3.41967L60.6857 3.40764L60.6674 3.39714L60.4212 3.827ZM35.3997 97.1642L35.2579 97.6388L35.4886 97.7081L35.6853 97.5685L35.3997 97.1642ZM37.6003 95.2194L37.967 95.5523L37.9854 95.5315L38.0014 95.5097L37.6003 95.2194ZM44.0495 85.9831L44.455 86.2677L44.0495 85.9831ZM43.7154 83.8226L43.9967 83.4149L43.9963 83.4145L43.7154 83.8226ZM12.7756 62.4639L13.0577 62.0567L13.0572 62.0563L12.7756 62.4639ZM10.6009 62.8578L11.0094 63.138L11.0096 63.1377L10.6009 62.8578ZM3.88841 72.5804L4.29399 72.8649L4.29775 72.8594L3.88841 72.5804ZM4.76421 77.0076L4.48037 77.4137L4.48866 77.4193L4.76421 77.0076ZM4.77991 77.0181L5.05577 76.6067L5.05546 76.6065L4.77991 77.0181ZM12.3883 82.1571L12.1064 82.5645L12.3883 82.1571ZM32.9309 96.3954L33.2115 95.9872H33.2113L32.9309 96.3954ZM46.1898 82.6154L46.027 83.0832L46.3461 83.1942L46.5659 82.9378L46.1898 82.6154ZM47.094 81.562L47.4996 81.8464L47.5012 81.8441L47.094 81.562ZM67.1294 52.6234L66.722 52.3414V52.3415L67.1294 52.6234ZM75.4278 40.6506L75.8348 40.9328L75.8349 40.9328L75.4278 40.6506ZM75.266 38.6872L74.9858 39.0958L74.9861 39.096L75.266 38.6872ZM59.6874 27.9515L59.9695 27.5444L59.9687 27.5438L59.6874 27.9515ZM44.4551 17.4204L44.1722 17.8269L44.1732 17.8276L44.4551 17.4204ZM41.7401 17.8781L41.3325 17.5965L41.7401 17.8781ZM31.5926 32.5879L31.9999 32.8699L32.0006 32.8688L31.5926 32.5879ZM13.6476 58.4545L13.2408 58.1718L13.2406 58.1722L13.6476 58.4545ZM14.0268 60.7516L13.7456 61.1594L13.7458 61.1596L14.0268 60.7516ZM44.8916 82.0355L44.6102 82.4432L44.6297 82.4567L44.6504 82.4683L44.8916 82.0355ZM35.4935 99.327L35.3514 99.8016L35.5051 99.8472L35.6566 99.7946L35.4935 99.327ZM32.1347 98.2729L31.8597 98.685L31.8599 98.686L32.1347 98.2729ZM13.7049 85.6919L13.4242 86.1001L13.4247 86.1004L13.7049 85.6919ZM4.22265 79.2059L3.95406 79.6221L3.95446 79.6224L4.22265 79.2059ZM2.36614 71.0478L1.95969 70.7647L1.95942 70.765L2.36614 71.0478ZM40.9356 15.4093L40.5281 15.1276L40.5278 15.128L40.9356 15.4093ZM44.305 14.743L44.0287 15.1541L44.029 15.1543L44.305 14.743ZM48.9911 13.8176L49.3994 14.098L49.3995 14.0979L48.9911 13.8176ZM57.5841 1.37909L57.993 1.65867L57.9931 1.65852L57.5841 1.37909ZM59.9752 0.925357L59.6925 1.33219L59.6932 1.33265L59.9752 0.925357ZM84.5698 17.9387L84.8524 17.5319L84.8514 17.5313L84.5698 17.9387ZM84.8898 20.5536L84.4818 20.2726V20.2727L84.8898 20.5536ZM75.9851 33.4409L76.3915 33.7241L76.3921 33.7233L75.9851 33.4409ZM76.5423 37.0057L76.8214 36.5964L76.8212 36.5962L76.5423 37.0057ZM77.3139 41.5758L77.7212 41.8578L77.7213 41.8577L77.3139 41.5758ZM39.5746 96.114L39.1672 95.8327L39.1619 95.8406L39.1568 95.8475L39.5746 96.114ZM58.7586 2.84071C58.2794 3.30166 57.8329 3.79296 57.4204 4.31257L58.1963 4.92863C58.5814 4.44352 58.9982 3.98496 59.4454 3.5547L58.7586 2.84071ZM57.4013 4.33826C54.6292 8.3348 51.9323 12.352 49.1297 16.3096L49.9383 16.8821C52.7424 12.9221 55.4567 8.8802 58.2154 4.9029L57.4013 4.33826ZM49.13 16.3091C48.7948 16.7814 48.5471 17.2732 48.6278 17.7872C48.7105 18.3122 49.1054 18.681 49.5609 18.9859L50.112 18.1625C49.7013 17.8876 49.6209 17.7241 49.6066 17.6333C49.5905 17.5314 49.6247 17.3238 49.9379 16.8825L49.13 16.3091ZM49.5613 18.9861C51.5408 20.3084 53.4732 21.6833 55.4499 23.0449L56.0119 22.229C54.0529 20.8798 52.0977 19.489 50.1116 18.1623L49.5613 18.9861ZM55.4497 23.0447C60.7149 26.6754 65.98 30.306 71.2438 33.9383L71.8065 33.1229C66.5425 29.4904 61.2772 25.8597 56.0121 22.2291L55.4497 23.0447ZM71.2432 33.9379C71.5921 34.1796 72.0301 34.4569 72.5067 34.4864C73.0587 34.5206 73.5165 34.2279 73.8901 33.6877L73.0751 33.1242C72.8246 33.4866 72.6603 33.5033 72.5679 33.4975C72.4001 33.4871 72.1713 33.3755 71.8071 33.1233L71.2432 33.9379ZM73.8898 33.688C76.7825 29.5109 79.6768 25.3354 82.579 21.1652L81.7658 20.5993C78.8631 24.7704 75.9681 28.9467 73.0753 33.1239L73.8898 33.688ZM82.5783 21.1663C82.9768 20.5969 83.1768 20.0189 83.0386 19.4387C82.9042 18.8744 82.48 18.4439 81.9621 18.0884L81.4014 18.9053C81.8462 19.2106 82.0255 19.461 82.0748 19.6683C82.1204 19.8597 82.0845 20.144 81.7666 20.5982L82.5783 21.1663ZM81.9625 18.0887C74.8689 13.2097 67.7829 8.31944 60.7031 3.41967L60.1393 4.23433C67.2198 9.13463 74.3066 14.0255 81.401 18.905L81.9625 18.0887ZM60.6674 3.39714C60.2213 3.14167 59.7563 2.92224 59.2829 2.73653L58.9211 3.65888C59.3531 3.82831 59.7741 4.02725 60.175 4.25686L60.6674 3.39714ZM35.6853 97.5685C36.518 96.9809 37.2831 96.3053 37.967 95.5523L37.2336 94.8855C36.5985 95.585 35.8879 96.2131 35.1139 96.759L35.6853 97.5685ZM38.0014 95.5097C40.2058 92.467 42.3078 89.3277 44.455 86.2677L43.6441 85.6986C41.4775 88.7862 39.4004 91.8901 37.1991 94.9281L38.0014 95.5097ZM44.455 86.2677C44.7849 85.7976 45.0235 85.2896 44.9564 84.7535C44.8873 84.2007 44.5154 83.7726 43.9967 83.4149L43.4342 84.2304C43.8514 84.5182 43.9551 84.7304 43.9734 84.8765C43.9937 85.0393 43.9315 85.2889 43.644 85.6986L44.455 86.2677ZM43.9963 83.4145C33.6716 76.3101 23.359 69.1918 13.0577 62.0567L12.4935 62.8711C22.7957 70.0069 33.1092 77.1257 43.4347 84.2308L43.9963 83.4145ZM13.0572 62.0563C12.5691 61.7192 12.0483 61.5069 11.5077 61.5991C10.9633 61.692 10.5406 62.0693 10.1922 62.578L11.0096 63.1377C11.289 62.7298 11.5102 62.6038 11.6745 62.5758C11.8427 62.547 12.0954 62.596 12.494 62.8715L13.0572 62.0563ZM10.1924 62.5777C7.97268 65.8135 5.69409 69.0516 3.47909 72.3014L4.29775 72.8594C6.51847 69.6012 8.7738 66.3971 11.0094 63.138L10.1924 62.5777ZM3.48288 72.2959C2.32223 73.9504 2.79565 76.2361 4.48042 77.4136L5.04799 76.6015C3.78012 75.7154 3.46999 74.0394 4.29395 72.8648L3.48288 72.2959ZM4.48866 77.4193L4.50437 77.4298L5.05546 76.6065L5.03975 76.596L4.48866 77.4193ZM4.50407 77.4296C7.0486 79.1354 9.59552 80.8266 12.1064 82.5645L12.6702 81.7498C10.1514 80.0065 7.59525 78.3091 5.05577 76.6067L4.50407 77.4296ZM12.1064 82.5645C18.9535 87.3029 25.7797 92.0876 32.6506 96.8036L33.2113 95.9872C26.3412 91.2714 19.5249 86.4936 12.6702 81.7498L12.1064 82.5645ZM32.6504 96.8036C33.035 97.0681 33.4795 97.2039 33.9073 97.3089C34.3622 97.4208 34.7776 97.4951 35.2579 97.6388L35.5413 96.6897C35.0358 96.5381 34.5236 96.44 34.144 96.3469C33.7373 96.2468 33.4405 96.1448 33.2115 95.9872L32.6504 96.8036ZM46.5659 82.9378C46.8594 82.5956 47.2347 82.2241 47.4996 81.8464L46.6885 81.2775C46.4559 81.609 46.195 81.8483 45.8137 82.293L46.5659 82.9378ZM47.5012 81.8441C54.1828 72.2017 60.8618 62.5548 67.5368 52.9052L66.722 52.3415C60.0471 61.9909 53.3683 71.6376 46.6869 81.2798L47.5012 81.8441ZM67.5367 52.9054C70.3005 48.9122 73.0669 44.9237 75.8348 40.9328L75.0207 40.3682C72.2528 44.3589 69.4862 48.3479 66.722 52.3414L67.5367 52.9054ZM75.8349 40.9328C76.0843 40.5729 76.3499 40.1293 76.3644 39.6457C76.3808 39.0976 76.0814 38.6451 75.5458 38.2785L74.9861 39.096C75.3476 39.3435 75.3771 39.5149 75.3741 39.6161C75.3691 39.7817 75.2672 40.0126 75.0206 40.3683L75.8349 40.9328ZM75.5461 38.2787C70.3441 34.7122 65.1517 31.1357 59.9695 27.5444L59.4051 28.3587C64.5889 31.9512 69.7826 35.5286 74.9858 39.0958L75.5461 38.2787ZM59.9687 27.5438C54.8884 24.0369 49.8106 20.5263 44.7372 17.0131L44.1732 17.8276C49.2469 21.341 54.3252 24.8519 59.4059 28.3592L59.9687 27.5438ZM44.7382 17.0138C44.3806 16.7649 44.0652 16.5569 43.782 16.4205C43.4965 16.283 43.1887 16.1906 42.8604 16.2413C42.5287 16.2924 42.2641 16.4758 42.036 16.7032C41.8115 16.9268 41.5842 17.2322 41.3325 17.5965L42.1476 18.1597C42.3973 17.7984 42.5807 17.559 42.7354 17.4049C42.8864 17.2544 42.969 17.227 43.0115 17.2205C43.0576 17.2133 43.1509 17.2162 43.3521 17.3132C43.5558 17.4113 43.8128 17.5768 44.1722 17.8269L44.7382 17.0138ZM41.3325 17.5965C37.9459 22.499 34.5623 27.401 31.1847 32.3071L32.0006 32.8688C35.378 27.9635 38.7611 23.062 42.1476 18.1597L41.3325 17.5965ZM31.1853 32.306C25.2109 40.9344 19.2298 49.5558 13.2408 58.1718L14.0543 58.7373C20.0437 50.1207 26.0251 41.4989 31.9999 32.8699L31.1853 32.306ZM13.2406 58.1722C12.8832 58.6875 12.6599 59.2299 12.7467 59.7884C12.8347 60.3547 13.2187 60.7961 13.7456 61.1594L14.308 60.3437C13.8873 60.0537 13.7541 59.8188 13.7257 59.6362C13.6961 59.4456 13.7569 59.1661 14.0546 58.7369L13.2406 58.1722ZM13.7458 61.1596C24.0387 68.2483 34.3247 75.3432 44.6102 82.4432L45.173 81.6279C34.8873 74.5277 24.6011 67.4326 14.3078 60.3436L13.7458 61.1596ZM44.6504 82.4683C45.091 82.7139 45.5517 82.9179 46.027 83.0832L46.3526 82.1475C45.9285 82 45.5206 81.819 45.1327 81.6029L44.6504 82.4683ZM35.6355 98.8525C35.0618 98.6801 34.3929 98.5572 33.8605 98.4264C33.2929 98.2867 32.8037 98.1243 32.4094 97.8607L31.8599 98.686C32.4018 99.0466 33.0281 99.2418 33.6238 99.3884C34.2549 99.544 34.7973 99.6351 35.3514 99.8016L35.6355 98.8525ZM32.4096 97.8617C26.2244 93.7349 20.1223 89.4923 13.9851 85.2834L13.4247 86.1004C19.555 90.3046 25.6675 94.5546 31.8597 98.685L32.4096 97.8617ZM13.9856 85.2837C10.8394 83.1208 7.71633 80.8662 4.49083 78.7894L3.95446 79.6224C7.16377 81.6889 10.2524 83.9195 13.4242 86.1001L13.9856 85.2837ZM4.49123 78.7897C3.05321 77.8617 2.18387 76.6363 1.88766 75.3442C1.59228 74.0556 1.85486 72.6508 2.77286 71.3306L1.95942 70.765C0.897021 72.293 0.558614 73.9805 0.921968 75.5655C1.28449 77.147 2.33362 78.5764 3.95406 79.6221L4.49123 78.7897ZM2.7726 71.331C15.6734 52.8135 28.5278 34.2677 41.3434 15.6907L40.5278 15.128C27.7131 33.7039 14.8596 52.2485 1.95969 70.7647L2.7726 71.331ZM41.3431 15.691C41.6585 15.2347 41.8941 14.9203 42.0973 14.7104C42.2982 14.5029 42.4252 14.4427 42.5141 14.4254C42.6018 14.4083 42.7379 14.4164 42.9936 14.5322C43.2533 14.6499 43.5788 14.8516 44.0287 15.1541L44.5814 14.3319C44.1331 14.0304 43.746 13.7855 43.4025 13.6298C43.0549 13.4723 42.6974 13.3804 42.3248 13.4529C41.9535 13.5252 41.6538 13.744 41.3855 14.0213C41.1194 14.296 40.8432 14.6719 40.5281 15.1276L41.3431 15.691ZM44.029 15.1543C44.7159 15.6154 45.2649 15.9848 45.7158 16.2194C46.1644 16.4526 46.6112 16.6055 47.0735 16.5129C47.5337 16.4206 47.8901 16.1086 48.22 15.7231C48.5526 15.3345 48.9282 14.7843 49.3994 14.098L48.5828 13.5372C48.0972 14.2442 47.7572 14.7402 47.4674 15.0789C47.1749 15.4206 47.0023 15.5167 46.8788 15.5414C46.7572 15.5658 46.5656 15.5445 46.173 15.3404C45.783 15.1376 45.2883 14.8064 44.5812 14.3317L44.029 15.1543ZM49.3995 14.0979C52.2429 9.95575 55.153 5.81247 57.993 1.65867L57.1752 1.09951C54.3263 5.26648 51.4439 9.36923 48.5827 13.5373L49.3995 14.0979ZM57.9931 1.65852C58.3125 1.19105 58.5685 1.03664 58.7665 1.00156C58.9663 0.966186 59.2521 1.02628 59.6925 1.33219L60.2577 0.518529C59.7295 0.151529 59.1715 -0.0763116 58.5938 0.0260121C58.0143 0.128633 57.5591 0.537542 57.1751 1.09966L57.9931 1.65852ZM59.6932 1.33265C67.888 7.00612 76.0842 12.6777 84.2883 18.3463L84.8514 17.5313C76.6478 11.8628 68.4519 6.19143 60.2571 0.518074L59.6932 1.33265ZM84.2872 18.3456C84.8866 18.762 85.0065 18.9737 85.0236 19.118C85.0325 19.194 85.0207 19.3111 84.9358 19.5068C84.8498 19.705 84.7036 19.9507 84.4818 20.2726L85.2978 20.8346C85.5307 20.4964 85.7201 20.1882 85.8446 19.9012C85.9702 19.6116 86.0439 19.312 86.0075 19.0022C85.9337 18.3752 85.4391 17.9394 84.8524 17.5319L84.2872 18.3456ZM84.4818 20.2727C81.5197 24.5748 78.5532 28.8709 75.5782 33.1585L76.3921 33.7233C79.368 29.4345 82.3353 25.1374 85.2978 20.8346L84.4818 20.2727ZM75.5788 33.1576C75.2096 33.6872 74.9078 34.1163 74.7115 34.468C74.5187 34.8133 74.3687 35.1823 74.4279 35.5747C74.4883 35.9756 74.7467 36.2735 75.0398 36.5277C75.3344 36.7832 75.7531 37.0674 76.2636 37.415L76.8212 36.5962C76.2896 36.2341 75.9294 35.9878 75.6889 35.7792C75.447 35.5694 75.414 35.4698 75.4075 35.4269C75.3998 35.3755 75.4072 35.2544 75.5766 34.9508C75.7426 34.6534 76.0079 34.2745 76.3915 33.7241L75.5788 33.1576ZM76.2633 37.4149C76.9176 37.8612 77.375 38.182 77.6832 38.4588C77.9909 38.7351 78.0794 38.9073 78.1013 39.0369C78.1239 39.1705 78.0953 39.3735 77.8951 39.7579C77.696 40.1404 77.3716 40.6218 76.9065 41.2941L77.7213 41.8577C78.1772 41.1987 78.5405 40.6638 78.7739 40.2156C79.0062 39.7693 79.1551 39.3273 79.0782 38.8719C79.0006 38.4125 78.7127 38.0517 78.3452 37.7217C77.9782 37.392 77.4616 37.0329 76.8214 36.5964L76.2633 37.4149ZM76.9066 41.2939C64.3219 59.4709 51.7422 77.6487 39.1672 95.8327L39.9821 96.3964C52.557 78.2124 65.1364 60.0347 77.7212 41.8578L76.9066 41.2939ZM39.1568 95.8475C38.2675 97.2445 36.9259 98.3026 35.3303 98.8594L35.6566 99.7946C37.4589 99.1655 38.9815 97.9677 39.9924 96.3806L39.1568 95.8475Z" fill="#989898"/>
<path fill-rule="evenodd" clip-rule="evenodd" d="M49.5592 50.9104C48.0674 51.0744 46.5853 51.3115 45.1269 51.6194C44.352 51.8323 43.6812 52.2769 43.202 52.896C41.0941 55.7824 39.1135 58.7599 37.0269 61.6606C36.8238 61.9411 36.1983 61.9216 35.767 62.0406C35.6665 61.5685 35.3485 60.9883 35.5059 60.6425C35.9065 59.8089 36.4162 59.0338 37.0269 58.3379C37.8476 57.4297 38.118 56.1502 37.7451 54.9376C37.1042 52.3512 36.5421 49.7482 36.0879 47.1364C35.968 46.3477 36.1107 45.5584 36.4922 44.8825C37.5437 43.1686 38.6903 41.5156 39.928 39.9293C40.2115 39.5609 40.916 39.5177 41.4293 39.3176C41.4561 39.8676 41.7033 40.5537 41.4663 40.9445C40.5091 42.522 39.3549 43.9791 38.3815 45.5485C38.0275 46.1096 37.8687 46.7755 37.9304 47.453C38.1824 49.1689 38.5935 50.8726 39.0156 52.5694C39.1085 52.9467 39.4956 53.5298 39.7575 53.5488C40.1926 53.4931 40.5719 53.2582 40.8008 52.9025C44.622 47.4379 48.4218 41.9592 52.2067 36.4704C52.3674 36.2397 52.4882 35.907 52.7203 35.8137C53.137 35.6935 53.5696 35.6187 54.0091 35.5889C54.0752 36.0063 54.3458 36.5605 54.175 36.8249C52.7141 39.086 51.1729 41.2962 49.6523 43.5174C48.6749 44.9453 47.6668 46.3499 46.727 47.8001C46.5594 48.1796 46.4526 48.5881 46.4094 49.0075C46.844 49.1277 47.2902 49.1893 47.7341 49.1943C49.4336 48.9872 51.1329 48.7712 52.7951 48.4262C53.4206 48.2751 53.9676 47.9327 54.3585 47.4454C55.4149 46.079 56.334 44.6092 57.3343 43.2023C57.5577 42.8226 57.8811 42.5099 58.2699 42.293C58.6455 42.1973 59.0587 42.2714 59.3939 42.4987C59.592 42.7788 59.6327 43.1328 59.5025 43.4333C58.0999 45.5424 56.674 47.6361 55.179 49.6806C54.8281 50.0067 54.3705 50.2065 53.8798 50.2483C52.4479 50.5072 50.9992 50.6944 49.5592 50.9104Z" fill="#4C8FCC"/>
<path fill-rule="evenodd" clip-rule="evenodd" d="M49.5592 50.9104C48.0674 51.0744 46.5853 51.3115 45.1269 51.6194C44.352 51.8323 43.6812 52.2769 43.202 52.896C41.0941 55.7824 39.1135 58.7599 37.0269 61.6606C36.8238 61.9411 36.1983 61.9216 35.767 62.0406C35.6665 61.5685 35.3485 60.9883 35.5059 60.6425C35.9065 59.8089 36.4162 59.0338 37.0269 58.3379C37.8476 57.4297 38.118 56.1502 37.7451 54.9376C37.1042 52.3512 36.5421 49.7482 36.0879 47.1364C35.968 46.3477 36.1107 45.5584 36.4922 44.8825C37.5437 43.1686 38.6903 41.5156 39.928 39.9293C40.2115 39.5609 40.916 39.5177 41.4293 39.3176C41.4561 39.8676 41.7033 40.5537 41.4663 40.9445C40.5091 42.522 39.3549 43.9791 38.3815 45.5485C38.0275 46.1096 37.8687 46.7755 37.9304 47.453C38.1824 49.1689 38.5935 50.8726 39.0156 52.5694C39.1085 52.9467 39.4956 53.5298 39.7575 53.5488C40.1926 53.4931 40.5719 53.2582 40.8008 52.9025C44.622 47.4379 48.4218 41.9592 52.2067 36.4704C52.3674 36.2397 52.4882 35.907 52.7203 35.8137C53.137 35.6935 53.5696 35.6187 54.0091 35.5889C54.0752 36.0063 54.3458 36.5605 54.175 36.8249C52.7141 39.086 51.1729 41.2962 49.6523 43.5174C48.6749 44.9453 47.6668 46.3499 46.727 47.8001C46.5594 48.1796 46.4526 48.5881 46.4094 49.0075C46.844 49.1277 47.2902 49.1893 47.7341 49.1943C49.4336 48.9872 51.1329 48.7712 52.7951 48.4262C53.4206 48.2751 53.9676 47.9327 54.3585 47.4454C55.4149 46.079 56.334 44.6092 57.3343 43.2023C57.5577 42.8226 57.8811 42.5099 58.2699 42.293C58.6455 42.1973 59.0587 42.2714 59.3939 42.4987C59.592 42.7788 59.6327 43.1328 59.5025 43.4333C58.0999 45.5424 56.674 47.6361 55.179 49.6806C54.8281 50.0067 54.3705 50.2065 53.8798 50.2483C52.4479 50.5072 50.9992 50.6944 49.5592 50.9104Z" stroke="#4C8FCC" stroke-width="0.265"/>
<path fill-rule="evenodd" clip-rule="evenodd" d="M64.0892 14.4675C63.5947 16.2629 62.4733 17.6387 61.6265 17.3811C60.6784 17.0835 59.886 16.52 59.2813 15.7176C59.0464 15.4112 59.5369 14.2041 59.6986 13.401C60.2857 13.1478 61.0816 12.5537 61.4283 12.6974C62.3715 13.2018 63.2606 13.7914 64.0892 14.4675Z" fill="#989898"/>
<path fill-rule="evenodd" clip-rule="evenodd" d="M64.0892 14.4675C63.5947 16.2629 62.4733 17.6387 61.6265 17.3811C60.6784 17.0835 59.886 16.52 59.2813 15.7176C59.0464 15.4112 59.5369 14.2041 59.6986 13.401C60.2857 13.1478 61.0816 12.5537 61.4283 12.6974C62.3715 13.2018 63.2606 13.7914 64.0892 14.4675Z" stroke="#707070" stroke-width="0.265"/>
<path fill-rule="evenodd" clip-rule="evenodd" d="M69.6575 20.0334C71.1346 19.3872 73.494 21.0438 73.3445 22.2583C73.2116 23.3623 71.9929 24.8718 71.3121 24.5984C70.2777 24.149 69.4061 23.4441 68.72 22.4989C68.556 22.2731 69.3205 20.8849 69.6575 20.0334Z" fill="#989898"/>
<path fill-rule="evenodd" clip-rule="evenodd" d="M69.6575 20.0334C71.1346 19.3872 73.494 21.0438 73.3445 22.2583C73.2116 23.3623 71.9929 24.8718 71.3121 24.5984C70.2777 24.149 69.4061 23.4441 68.72 22.4989C68.556 22.2731 69.3205 20.8849 69.6575 20.0334Z" stroke="#707070" stroke-width="0.265"/>
</svg>
